<?xml version="1.0" encoding="utf-8"?>
<!-- Generator: Adobe Illustrator 17.0.0, SVG Export Plug-In . SVG Version: 6.00 Build 0)  -->
<!DOCTYPE svg PUBLIC "-//W3C//DTD SVG 1.1//EN" "http://www.w3.org/Graphics/SVG/1.1/DTD/svg11.dtd">
<svg version="1.1" xmlns="http://www.w3.org/2000/svg" xmlns:xlink="http://www.w3.org/1999/xlink" x="0px" y="0px" width="750px"
	 height="500px" viewBox="0 0 750 500" enable-background="new 0 0 750 500" xml:space="preserve">
<g id="BACKGROUND">
</g>
<g id="OBJECTS">
	<g>
		<g>
			<defs>
				<rect id="SVGID_1_" x="0" y="0" width="750" height="500"/>
			</defs>
			<clipPath id="SVGID_2_">
				<use xlink:href="#SVGID_1_"  overflow="visible"/>
			</clipPath>
			<g clip-path="url(#SVGID_2_)">
				<path opacity="0.2" fill="#FFFFFF" d="M330.445,526.118c0,0,57.438-11.262,82.215-49.555
					c24.777-38.292,9.01-145.003,50.681-158.659c41.671-13.656,54.252,62.655,91.707,70.506c37.455,7.851,58.93-83.662,93.42-95.174
					c34.49-11.512,35.091,125.889,142.346,124.763v104.74L330.445,526.118z"/>
				<path opacity="0.2" fill="#FFFFFF" d="M-53.603,113.914c0,0,12.389,68.701,92.352,61.943
					c79.963-6.758,46.139-140.78,108.1-152.042c61.962-11.262,67.593,112.624,135.167,120.508
					c67.574,7.884,63.069-159.926,123.886-175.693H-53.603V113.914z"/>
				<path opacity="0.2" fill="#FFFFFF" d="M442.203,31.917c-4.625,19.001-13.184,36.775-23.073,53.555
					c-4.418,7.498-8.944,15.502-15.877,20.989c-3.194,2.528-7.138,4.656-11.316,4.582c-3.91-0.069-6.687-2.693-7.643-6.378
					c-1.084-4.18,0.245-8.461,1.923-12.295c2.005-4.581,4.209-9.053,6.054-13.707c3.671-9.26,6.475-18.863,8.359-28.644
					c1.915-9.939,2.357-20.099,4.375-30.014c1.698-8.345,5.027-29.6,25.999-22.384c3.902,1.343,7.195,3.742,9.398,7.23
					C445.545,12.991,444.37,23.016,442.203,31.917z"/>
				<circle opacity="0.2" fill="#FFFFFF" cx="369.3" cy="130.62" r="10.324"/>
				<path opacity="0.2" fill="#FFFFFF" d="M421.405,299.913c-3.206-9.263-12.445-17.366-22.753-15.719
					c-10.759,1.72-17.188,11.765-19.661,21.57c-1.501,5.951-1.943,12.136-2.51,18.229c-0.596,6.415-1.114,12.837-1.552,19.265
					c-1.736,25.481-2.242,51.049-1.503,76.579c0.09,3.098,0.199,6.195,0.324,9.291c0.038,0.938,0.594,1.473,1.277,1.655
					c1.015,2.25,2.809,4.178,5,5.352c4.038,2.162,8.817,0.916,11.922-2.233c2.94-2.983,4.33-7.295,5.15-11.305
					c1.119-5.465,1.369-11.141,2.009-16.677c1.461-12.634,3.433-25.23,7.476-37.327c3.909-11.697,9.077-22.937,12.685-34.739
					C422.561,323.092,425.209,310.902,421.405,299.913z"/>
				<circle opacity="0.2" fill="#FFFFFF" cx="447.427" cy="260.136" r="15.204"/>
			</g>
		</g>
		<g opacity="0.8">
			<defs>
				<rect id="SVGID_3_" x="0" y="0" opacity="0.8" width="750" height="500"/>
			</defs>
			<clipPath id="SVGID_4_">
				<use xlink:href="#SVGID_3_"  overflow="visible"/>
			</clipPath>
			<g clip-path="url(#SVGID_4_)">
				<g>
					<path fill="none" stroke="#FCFAFC" stroke-miterlimit="10" d="M-92.07,334.06c0,0,127.29-79.298,223.293-71.906
						s112.454,41.914,180.274,34.185c72.109-8.219,26.407-81.919,87.846-89.051c71.827-8.338,90.986,29.025,144.998,29.727
						c54.012,0.703,47.415-75.578,136.898-73.724c65.495,1.357,90.632,29.228,172.505,23.385"/>
				</g>
				<g>
					<path fill="none" stroke="#FCFAFC" stroke-miterlimit="10" d="M-103.114,352.799c0,0,126.431-87.272,224.981-81.857
						c98.55,5.416,117.017,41.599,186.021,31.695c73.367-10.53,23.117-87.508,85.622-96.618
						c73.073-10.65,94.446,28.476,149.726,27.859c55.28-0.616,44.907-81.316,136.524-81.605
						c67.057-0.212,94.093,28.701,177.561,20.442"/>
				</g>
				<g>
					<path fill="none" stroke="#FCFAFC" stroke-miterlimit="10" d="M-113.519,372.942c0,0,125.173-95.704,226.234-92.447
						s121.67,41.15,191.781,28.912c74.544-13.012,19.486-93.351,82.987-104.583c74.238-13.132,97.958,27.807,154.473,25.76
						c56.515-2.047,42.069-87.335,135.767-89.951c68.58-1.915,97.609,28.054,182.592,17.195"/>
				</g>
				<g>
					<path fill="none" stroke="#FCFAFC" stroke-miterlimit="10" d="M-123.205,394.558c0,0,123.486-104.612,227.012-103.706
						s126.408,40.557,197.54,25.816c75.63-15.673,15.494-99.452,79.913-112.961c75.311-15.792,101.52,27.009,159.23,23.415
						c57.71-3.594,38.879-93.645,134.595-98.78c70.057-3.759,101.174,27.28,187.584,13.627"/>
				</g>
				<g>
					<path fill="none" stroke="#FCFAFC" stroke-miterlimit="10" d="M-132.085,417.717c0,0,121.337-114.012,227.273-115.661
						s131.226,39.808,203.284,22.388c76.614-18.522,11.121-105.821,76.371-121.765c76.282-18.64,105.125,26.074,163.983,20.809
						s35.317-100.253,132.977-108.11c71.48-5.75,104.784,26.37,192.521,9.717"/>
				</g>
				<g>
					<path fill="none" stroke="#FCFAFC" stroke-miterlimit="10" d="M-140.067,442.492c0,0,118.692-123.923,226.971-128.341
						c108.279-4.418,136.119,38.893,208.996,18.61c77.486-21.566,6.345-112.461,72.329-131.008
						c77.14-21.683,108.768,24.991,168.722,17.926c59.954-7.065,31.359-107.169,130.879-117.959
						c72.841-7.898,108.433,25.313,197.384,5.449"/>
				</g>
				<g>
					<path fill="none" stroke="#FCFAFC" stroke-miterlimit="10" d="M-147.054,468.958c0,0,115.515-134.363,226.06-141.776
						c110.545-7.413,141.079,37.8,214.659,14.461c78.232-24.815,1.145-119.381,67.755-140.705
						c77.873-24.93,112.443,23.751,173.431,14.751c60.989-9.001,26.981-114.401,128.264-128.348
						c74.131-10.208,112.115,24.102,202.156,0.802"/>
				</g>
				<g>
					<path fill="none" stroke="#FCFAFC" stroke-miterlimit="10" d="M-152.943,497.19c0,0,111.769-145.35,224.49-155.995
						c112.72-10.645,146.102,36.516,220.254,9.919c78.841-28.278-4.504-126.585,62.616-150.87
						c78.469-28.391,116.142,22.345,178.098,11.266s22.16-121.957,125.096-139.295c75.341-12.69,115.825,22.724,206.816-4.246"/>
				</g>
				<g>
					<path fill="none" stroke="#FCFAFC" stroke-miterlimit="10" d="M-157.624,527.268c0,0,107.416-156.903,222.207-171.03
						s151.178,35.028,225.761,4.964c79.3-31.965-10.624-134.08,56.877-161.516c78.913-32.076,119.86,20.76,182.705,7.454
						c62.845-13.306,16.87-129.846,121.335-150.821c76.46-15.352,119.553,21.171,211.343-9.714"/>
				</g>
				<g>
					<path fill="none" stroke="#FCFAFC" stroke-miterlimit="10" d="M-160.983,559.271c0,0,102.414-169.041,219.158-186.91
						c116.745-17.868,156.299,33.323,231.159-0.428c79.593-35.885-17.24-141.87,50.5-172.658
						c79.193-35.993,123.587,18.987,187.237,3.297S538.155,64.497,644.01,39.629c77.479-18.202,123.293,19.43,215.714-15.625"/>
				</g>
				<g>
					<path fill="none" stroke="#FCFAFC" stroke-miterlimit="10" d="M-162.897,593.282c0,0,96.72-181.783,215.284-203.668
						c118.564-21.885,161.457,31.386,236.424-6.28c79.707-40.048-24.378-149.963,43.447-184.308
						c79.292-40.152,127.315,17.013,191.675-1.224c64.359-18.237,4.774-146.654,111.868-175.685
						c78.385-21.249,127.035,17.49,219.903-22.001"/>
				</g>
				<g>
					<path fill="none" stroke="#FCFAFC" stroke-miterlimit="10" d="M-163.238,629.386c0,0,90.29-195.147,210.525-221.336
						c120.235-26.189,166.641,29.203,241.531-12.617c79.626-44.465-32.064-158.362,35.68-196.481
						c79.197-44.564,131.035,14.827,195.999-6.129C585.46,171.869,518.409,37.236,626.571,3.76
						c79.167-24.502,130.771,15.34,223.885-28.866"/>
				</g>
				<g>
					<path fill="none" stroke="#FCFAFC" stroke-miterlimit="10" d="M-161.871,667.669c0,0,83.079-209.152,204.818-239.945
						c121.739-30.793,171.839,26.759,246.453-19.463c79.333-49.144-40.324-167.072,27.156-209.19
						c78.889-49.239,134.736,12.415,200.189-11.437c65.453-23.853-9.531-164.887,99.513-203.101
						c79.813-27.97,134.49,12.965,227.632-36.244"/>
				</g>
				<g>
					<path fill="none" stroke="#FCFAFC" stroke-miterlimit="10" d="M-158.653,708.218c0,0,75.037-223.817,198.095-259.53
						c123.059-35.713,177.039,24.036,251.163-26.844c78.811-54.097-49.188-176.098,17.833-222.448
						c78.352-54.187,138.406,9.765,204.222-17.171C578.477,155.29,495.074,7.669,604.795-35.59
						c80.308-31.663,138.181,10.355,231.113-44.16"/>
				</g>
				<g>
					<path fill="none" stroke="#FCFAFC" stroke-miterlimit="10" d="M-153.434,751.124c0,0,66.113-239.161,190.288-280.122
						c124.175-40.961,182.23,21.018,255.63-34.788c78.042-59.335-58.683-185.442,7.667-236.267
						c77.568-59.418,142.035,6.864,208.075-23.35S481.94-8.009,592.114-56.634c80.639-35.59,141.833,7.494,234.298-52.639"/>
				</g>
				<g>
					<path fill="none" stroke="#FCFAFC" stroke-miterlimit="10" d="M-146.056,796.476c0,0,56.257-255.202,181.324-301.754
						s187.395,17.688,259.821-43.323c77.005-64.869-68.839-195.109-3.388-250.661c76.517-64.945,145.609,3.697,211.723-29.998
						c66.114-33.694-35.662-195.039,74.719-249.363c80.791-39.762,145.432,4.37,237.153-61.709"/>
				</g>
			</g>
		</g>
		<g>
			<defs>
				<rect id="SVGID_5_" x="0" y="0" width="750" height="500"/>
			</defs>
			<clipPath id="SVGID_6_">
				<use xlink:href="#SVGID_5_"  overflow="visible"/>
			</clipPath>
		</g>
		<g>
			<circle fill="#FFFFFF" cx="191.781" cy="439.543" r="10"/>
			<circle fill="#FFFFFF" cx="39.312" cy="367.881" r="3.942"/>
			
			<circle fill="#FFFFFF" cx="205.899" cy="258.812" r="4.118"/>
			<circle fill="#FFFFFF" cx="607.187" cy="270" r="7.07"/>
			<circle fill="#FFFFFF" cx="481.361" cy="26.068" r="3.379"/>
			<circle fill="#FFFFFF" cx="639.975" cy="61.404" r="4.927"/>
			<g>
				<g>
					<g>
						<circle fill="#FFFFFF" cx="72.418" cy="48.865" r="2.534"/>
						<circle fill="#FFFFFF" cx="92.418" cy="48.865" r="2.534"/>
						<circle fill="#FFFFFF" cx="112.418" cy="48.865" r="2.534"/>
						<circle fill="#FFFFFF" cx="132.418" cy="48.865" r="2.534"/>
						<circle fill="#FFFFFF" cx="152.418" cy="48.865" r="2.534"/>
						<circle fill="#FFFFFF" cx="172.418" cy="48.865" r="2.534"/>
						<circle fill="#FFFFFF" cx="192.418" cy="48.865" r="2.534"/>
					</g>
					<g>
						<circle fill="#FFFFFF" cx="72.418" cy="68.865" r="2.534"/>
						<circle fill="#FFFFFF" cx="92.418" cy="68.865" r="2.534"/>
						<circle fill="#FFFFFF" cx="112.418" cy="68.865" r="2.534"/>
						<circle fill="#FFFFFF" cx="132.418" cy="68.865" r="2.534"/>
						<circle fill="#FFFFFF" cx="152.418" cy="68.865" r="2.534"/>
						<circle fill="#FFFFFF" cx="172.418" cy="68.865" r="2.534"/>
						<circle fill="#FFFFFF" cx="192.418" cy="68.865" r="2.534"/>
					</g>
					<g>
						<circle fill="#FFFFFF" cx="72.418" cy="88.865" r="2.534"/>
						<circle fill="#FFFFFF" cx="92.418" cy="88.865" r="2.534"/>
						<circle fill="#FFFFFF" cx="112.418" cy="88.865" r="2.534"/>
						<circle fill="#FFFFFF" cx="132.418" cy="88.865" r="2.534"/>
						<circle fill="#FFFFFF" cx="152.418" cy="88.865" r="2.534"/>
						<circle fill="#FFFFFF" cx="172.418" cy="88.865" r="2.534"/>
						<circle fill="#FFFFFF" cx="192.418" cy="88.865" r="2.534"/>
					</g>
				</g>
				<g>
					<g>
						<circle fill="#FFFFFF" cx="557.582" cy="409.543" r="2.534"/>
						<circle fill="#FFFFFF" cx="577.582" cy="409.543" r="2.534"/>
						<circle fill="#FFFFFF" cx="597.582" cy="409.543" r="2.534"/>
						<circle fill="#FFFFFF" cx="617.582" cy="409.543" r="2.534"/>
						<circle fill="#FFFFFF" cx="637.582" cy="409.543" r="2.534"/>
						<circle fill="#FFFFFF" cx="657.582" cy="409.543" r="2.534"/>
						<circle fill="#FFFFFF" cx="677.582" cy="409.543" r="2.534"/>
					</g>
					<g>
						<circle fill="#FFFFFF" cx="557.582" cy="429.543" r="2.534"/>
						<circle fill="#FFFFFF" cx="577.582" cy="429.543" r="2.534"/>
						<circle fill="#FFFFFF" cx="597.582" cy="429.543" r="2.534"/>
						<circle fill="#FFFFFF" cx="617.582" cy="429.543" r="2.534"/>
						<circle fill="#FFFFFF" cx="637.582" cy="429.543" r="2.534"/>
						<circle fill="#FFFFFF" cx="657.582" cy="429.543" r="2.534"/>
						<circle fill="#FFFFFF" cx="677.582" cy="429.543" r="2.534"/>
					</g>
					<g>
						<circle fill="#FFFFFF" cx="557.582" cy="449.543" r="2.534"/>
						<circle fill="#FFFFFF" cx="577.582" cy="449.543" r="2.534"/>
						<circle fill="#FFFFFF" cx="597.582" cy="449.543" r="2.534"/>
						<circle fill="#FFFFFF" cx="617.582" cy="449.543" r="2.534"/>
						<circle fill="#FFFFFF" cx="637.582" cy="449.543" r="2.534"/>
						<circle fill="#FFFFFF" cx="657.582" cy="449.543" r="2.534"/>
						<circle fill="#FFFFFF" cx="677.582" cy="449.543" r="2.534"/>
					</g>
				</g>
			</g>
		</g>
	</g>
</g>
</svg>
