<?xml version="1.0" encoding="utf-8"?>
<!-- Generator: Adobe Illustrator 17.0.0, SVG Export Plug-In . SVG Version: 6.00 Build 0)  -->
<!DOCTYPE svg PUBLIC "-//W3C//DTD SVG 1.1//EN" "http://www.w3.org/Graphics/SVG/1.1/DTD/svg11.dtd">
<svg version="1.1" id="Layer_1" xmlns="http://www.w3.org/2000/svg" xmlns:xlink="http://www.w3.org/1999/xlink" x="0px" y="0px"
	 width="299px" height="80px" viewBox="0 0 299 80" enable-background="new 0 0 299 80" xml:space="preserve">
<g>
	<g>
		<path fill="#FFFFFF" d="M142.401,12.142v24.876l-26.299-25.6h-0.445v45.293h8.919V31.835l26.363,25.651h0.419V12.142H142.401z"/>
		<path fill="#FFFFFF" d="M185.839,21.036v-8.792h-26.782V56.66h26.782v-8.881h-17.85v-9.173h15.309v-8.893h-15.309v-8.677H185.839z
			"/>
		<path fill="#FFFFFF" d="M212.9,33.575l12.705-21.331h-10.253l-7.572,13.442l-7.598-13.442H189.93l12.667,21.357L189.104,56.66
			h10.253l8.398-14.903l8.423,14.903h10.253L212.9,33.575z"/>
		<path fill="#FFFFFF" d="M254.623,12.244v27.938c0,4.815-3.875,8.36-8.169,8.36s-8.118-3.519-8.118-8.36V12.244h-8.97v27.963
			c0,10.05,7.674,17.368,17.113,17.368c9.44,0,17.113-7.318,17.113-17.368V12.244H254.623z"/>
		<path fill="#FFFFFF" d="M285.852,30.234c-5.107-2.401-8.461-3.303-8.461-5.946c0-2.287,2.477-4.218,5.819-4.218
			c2.477,0,5.031,1.08,6.352,3.723l6.594-4.599c-2.02-5.374-7.026-7.877-13.086-7.877c-8.156,0-14.661,5.057-14.661,12.743
			c0,7.089,5.488,9.808,10.469,12.298c4.65,2.312,9.973,4.866,9.973,8.118c0,2.376-2.808,4.078-7,4.078
			c-3.824,0-6.67-1.436-8.614-4.574l-7.14,5.018c2.973,5.501,8.347,8.538,15.614,8.538c9.503,0,16.122-5.145,16.122-13.251
			C297.832,37.45,293.208,33.702,285.852,30.234z"/>
	</g>
	<g>
		<path fill="#FFFFFF" d="M46.371,12.23c-11.59,1.414-19.4,7.998-23.53,18.899c-0.751,2.003-0.688,1.965-2.791,2.078
			c-8.085,0.425-14.03,4.28-17.222,11.702c-3.192,7.485-1.915,14.569,3.517,20.676c2.966,3.342,6.633,5.244,10.801,5.945
			c-0.225-1.039-0.35-2.115-0.35-3.217c0-1.414,0.2-2.779,0.563-4.068c-4.368-1.164-7.622-4.468-8.699-9.074
			c-1.765-7.485,4.155-14.907,11.84-14.844c0.238,0.012,0.476,0.038,0.776,0.063c0.175,3.968,1.715,7.234,4.769,9.725
			c1.94,1.602,4.155,2.416,6.058,2.328c-5.319-9.137-5.244-18.073,1.802-26.196c5.169-5.958,11.878-8.298,19.312-6.809v-7.247
			C51.002,11.942,48.711,11.942,46.371,12.23z"/>
	</g>
	<g>
		<path fill="#FFFFFF" d="M121.628,68.749c0.287,0.359,0.43,0.768,0.43,1.222c0,0.39-0.101,0.741-0.303,1.052
			c-0.202,0.313-0.494,0.559-0.876,0.738c-0.381,0.18-0.826,0.27-1.333,0.27h-3.063v-7.657h2.92c0.522,0,0.97,0.088,1.344,0.264
			c0.375,0.176,0.658,0.413,0.848,0.711c0.191,0.297,0.287,0.629,0.287,0.996c0,0.441-0.119,0.809-0.353,1.102
			s-0.551,0.511-0.947,0.65C120.993,68.172,121.342,68.389,121.628,68.749z M117.739,67.592h1.553c0.412,0,0.733-0.094,0.964-0.281
			c0.231-0.187,0.347-0.457,0.347-0.809c0-0.346-0.116-0.616-0.347-0.81s-0.552-0.292-0.964-0.292h-1.553V67.592z M120.439,70.699
			c0.242-0.205,0.363-0.491,0.363-0.859c0-0.374-0.128-0.672-0.385-0.892c-0.258-0.22-0.599-0.331-1.025-0.331h-1.652v2.392h1.696
			C119.862,71.008,120.196,70.905,120.439,70.699z"/>
		<path fill="#FFFFFF" d="M125.414,66.121c0.304-0.174,0.666-0.259,1.084-0.259v1.3h-0.319c-0.493,0-0.865,0.125-1.118,0.374
			s-0.38,0.683-0.38,1.3v3.195h-1.256V65.96h1.256v0.881C124.863,66.535,125.108,66.294,125.414,66.121z"/>
		<path fill="#FFFFFF" d="M127.721,64.926c-0.154-0.155-0.231-0.346-0.231-0.573s0.077-0.419,0.231-0.573
			c0.154-0.154,0.345-0.231,0.573-0.231c0.22,0,0.407,0.077,0.561,0.231c0.155,0.154,0.232,0.346,0.232,0.573
			s-0.077,0.418-0.232,0.573c-0.154,0.154-0.341,0.231-0.561,0.231C128.066,65.157,127.875,65.08,127.721,64.926z M128.912,65.961
			v6.071h-1.256v-6.071H128.912z"/>
		<path fill="#FFFFFF" d="M130.525,67.35c0.254-0.471,0.599-0.836,1.036-1.096c0.436-0.26,0.923-0.391,1.459-0.391
			c0.397,0,0.788,0.086,1.173,0.259c0.386,0.172,0.693,0.402,0.92,0.688v-2.931h1.267v8.154h-1.267v-0.914
			c-0.205,0.293-0.49,0.537-0.854,0.727c-0.363,0.191-0.78,0.286-1.25,0.286c-0.529,0-1.012-0.133-1.448-0.402
			c-0.438-0.268-0.782-0.643-1.036-1.123c-0.253-0.482-0.38-1.027-0.38-1.637S130.272,67.819,130.525,67.35z M134.855,67.9
			c-0.172-0.308-0.398-0.543-0.677-0.704c-0.28-0.163-0.581-0.243-0.904-0.243c-0.323,0-0.623,0.079-0.903,0.237
			c-0.279,0.158-0.505,0.39-0.677,0.694s-0.259,0.666-0.259,1.085c0,0.418,0.087,0.786,0.259,1.101
			c0.172,0.317,0.4,0.557,0.683,0.722c0.282,0.165,0.582,0.248,0.897,0.248c0.324,0,0.625-0.081,0.904-0.243
			c0.279-0.161,0.505-0.398,0.677-0.71s0.259-0.677,0.259-1.096S135.028,68.209,134.855,67.9z"/>
		<path fill="#FFFFFF" d="M141.731,66.143c0.364,0.187,0.649,0.42,0.854,0.699v-0.881h1.267v6.17c0,0.559-0.119,1.056-0.353,1.494
			c-0.235,0.436-0.574,0.78-1.019,1.029c-0.444,0.251-0.975,0.375-1.591,0.375c-0.823,0-1.506-0.193-2.05-0.578
			c-0.544-0.386-0.852-0.909-0.925-1.571h1.244c0.095,0.315,0.299,0.571,0.612,0.766c0.312,0.194,0.684,0.292,1.118,0.292
			c0.506,0,0.915-0.155,1.228-0.463c0.312-0.308,0.468-0.757,0.468-1.344v-1.013c-0.213,0.286-0.501,0.527-0.865,0.721
			c-0.363,0.194-0.776,0.292-1.239,0.292c-0.529,0-1.012-0.133-1.448-0.402c-0.438-0.268-0.782-0.643-1.036-1.123
			c-0.253-0.482-0.38-1.027-0.38-1.637s0.127-1.15,0.38-1.619c0.254-0.471,0.599-0.836,1.036-1.096
			c0.436-0.26,0.919-0.391,1.448-0.391C140.951,65.862,141.368,65.955,141.731,66.143z M142.326,67.9
			c-0.172-0.308-0.398-0.543-0.677-0.704c-0.28-0.163-0.581-0.243-0.904-0.243c-0.323,0-0.623,0.079-0.903,0.237
			c-0.279,0.158-0.505,0.39-0.677,0.694s-0.259,0.666-0.259,1.085c0,0.418,0.087,0.786,0.259,1.101
			c0.172,0.317,0.4,0.557,0.683,0.722c0.282,0.165,0.582,0.248,0.897,0.248c0.324,0,0.625-0.081,0.904-0.243
			c0.279-0.161,0.505-0.398,0.677-0.71s0.259-0.677,0.259-1.096S142.498,68.209,142.326,67.9z"/>
		<path fill="#FFFFFF" d="M145.571,64.926c-0.154-0.155-0.231-0.346-0.231-0.573s0.077-0.419,0.231-0.573
			c0.154-0.154,0.345-0.231,0.573-0.231c0.22,0,0.407,0.077,0.561,0.231c0.155,0.154,0.232,0.346,0.232,0.573
			s-0.077,0.418-0.232,0.573c-0.154,0.154-0.341,0.231-0.561,0.231C145.916,65.157,145.725,65.08,145.571,64.926z M146.762,65.961
			v6.071h-1.256v-6.071H146.762z"/>
		<path fill="#FFFFFF" d="M152.76,66.159c0.378,0.198,0.673,0.493,0.886,0.881c0.214,0.39,0.32,0.859,0.32,1.41v3.581h-1.245v-3.394
			c0-0.543-0.136-0.959-0.407-1.25c-0.273-0.29-0.643-0.435-1.113-0.435c-0.471,0-0.843,0.145-1.118,0.435
			c-0.275,0.291-0.413,0.708-0.413,1.25v3.394h-1.256V65.96h1.256v0.694c0.205-0.249,0.468-0.445,0.788-0.584
			c0.319-0.139,0.659-0.209,1.018-0.209C151.954,65.862,152.381,65.961,152.76,66.159z"/>
		<path fill="#FFFFFF" d="M159.26,66.143c0.364,0.187,0.649,0.42,0.854,0.699v-0.881h1.267v6.17c0,0.559-0.119,1.056-0.353,1.494
			c-0.235,0.436-0.574,0.78-1.019,1.029c-0.444,0.251-0.975,0.375-1.591,0.375c-0.823,0-1.506-0.193-2.05-0.578
			c-0.544-0.386-0.852-0.909-0.925-1.571h1.244c0.095,0.315,0.299,0.571,0.612,0.766c0.312,0.194,0.684,0.292,1.118,0.292
			c0.506,0,0.915-0.155,1.228-0.463c0.312-0.308,0.468-0.757,0.468-1.344v-1.013c-0.213,0.286-0.501,0.527-0.865,0.721
			c-0.363,0.194-0.776,0.292-1.239,0.292c-0.529,0-1.012-0.133-1.448-0.402c-0.438-0.268-0.782-0.643-1.036-1.123
			c-0.253-0.482-0.38-1.027-0.38-1.637s0.127-1.15,0.38-1.619c0.254-0.471,0.599-0.836,1.036-1.096
			c0.436-0.26,0.919-0.391,1.448-0.391C158.481,65.862,158.897,65.955,159.26,66.143z M159.856,67.9
			c-0.172-0.308-0.398-0.543-0.677-0.704c-0.28-0.163-0.581-0.243-0.904-0.243c-0.323,0-0.623,0.079-0.903,0.237
			c-0.279,0.158-0.505,0.39-0.677,0.694s-0.259,0.666-0.259,1.085c0,0.418,0.087,0.786,0.259,1.101
			c0.172,0.317,0.4,0.557,0.683,0.722c0.282,0.165,0.582,0.248,0.897,0.248c0.324,0,0.625-0.081,0.904-0.243
			c0.279-0.161,0.505-0.398,0.677-0.71s0.259-0.677,0.259-1.096S160.028,68.209,159.856,67.9z"/>
		<path fill="#FFFFFF" d="M167.034,71.839c-0.412-0.18-0.735-0.435-0.969-0.765c-0.236-0.331-0.353-0.716-0.353-1.157h1.344
			c0.029,0.331,0.16,0.603,0.391,0.815c0.231,0.214,0.556,0.32,0.975,0.32c0.433,0,0.771-0.105,1.013-0.314
			c0.242-0.21,0.364-0.479,0.364-0.81c0-0.257-0.076-0.466-0.226-0.628c-0.15-0.161-0.339-0.286-0.562-0.374
			c-0.224-0.088-0.534-0.183-0.931-0.287c-0.499-0.132-0.904-0.265-1.217-0.402c-0.312-0.136-0.578-0.347-0.798-0.633
			c-0.221-0.286-0.331-0.669-0.331-1.145c0-0.441,0.11-0.827,0.331-1.157c0.22-0.33,0.528-0.584,0.925-0.76
			c0.396-0.176,0.856-0.264,1.377-0.264c0.742,0,1.349,0.185,1.824,0.556c0.473,0.37,0.736,0.88,0.787,1.525h-1.388
			c-0.022-0.279-0.154-0.517-0.396-0.716c-0.243-0.198-0.562-0.297-0.959-0.297c-0.359,0-0.653,0.092-0.881,0.275
			c-0.227,0.185-0.341,0.449-0.341,0.794c0,0.235,0.071,0.428,0.215,0.578c0.143,0.15,0.325,0.27,0.545,0.358
			c0.22,0.088,0.522,0.183,0.903,0.286c0.507,0.139,0.92,0.28,1.239,0.419c0.32,0.139,0.592,0.354,0.815,0.644
			c0.225,0.291,0.336,0.677,0.336,1.162c0,0.39-0.104,0.757-0.314,1.102c-0.209,0.345-0.513,0.622-0.914,0.831
			s-0.873,0.314-1.415,0.314C167.908,72.109,167.445,72.02,167.034,71.839z"/>
		<path fill="#FFFFFF" d="M172.516,67.35c0.253-0.471,0.598-0.836,1.035-1.096c0.436-0.26,0.92-0.391,1.448-0.391
			c0.478,0,0.895,0.093,1.252,0.281c0.356,0.187,0.64,0.42,0.853,0.699v-0.881h1.267v6.071h-1.267V71.13
			c-0.213,0.286-0.504,0.526-0.87,0.716c-0.368,0.191-0.786,0.286-1.256,0.286c-0.521,0-0.999-0.133-1.432-0.402
			c-0.433-0.268-0.776-0.643-1.029-1.123c-0.254-0.482-0.38-1.027-0.38-1.637S172.262,67.819,172.516,67.35z M176.845,67.9
			c-0.172-0.308-0.398-0.543-0.677-0.704c-0.28-0.163-0.581-0.243-0.903-0.243c-0.324,0-0.625,0.079-0.903,0.237
			c-0.28,0.158-0.506,0.39-0.678,0.694s-0.259,0.666-0.259,1.085c0,0.418,0.087,0.786,0.259,1.101
			c0.172,0.317,0.401,0.557,0.683,0.722s0.582,0.248,0.898,0.248c0.323,0,0.623-0.081,0.903-0.243
			c0.279-0.161,0.505-0.398,0.677-0.71s0.259-0.677,0.259-1.096S177.017,68.209,176.845,67.9z"/>
		<path fill="#FFFFFF" d="M182.569,66.986h-1.123v5.047h-1.267v-5.047h-0.716v-1.024h0.716v-0.43c0-0.698,0.186-1.206,0.557-1.525
			c0.37-0.32,0.952-0.479,1.745-0.479v1.046c-0.381,0-0.649,0.072-0.804,0.215c-0.154,0.143-0.231,0.391-0.231,0.743v0.43h1.123
			V66.986z"/>
		<path fill="#FFFFFF" d="M189.202,69.466h-4.638c0.037,0.484,0.216,0.874,0.54,1.167c0.323,0.295,0.72,0.441,1.19,0.441
			c0.675,0,1.153-0.284,1.431-0.848h1.355c-0.183,0.557-0.516,1.014-0.997,1.371c-0.48,0.356-1.078,0.534-1.789,0.534
			c-0.581,0-1.1-0.13-1.56-0.391c-0.46-0.26-0.819-0.628-1.079-1.101c-0.262-0.474-0.391-1.023-0.391-1.648s0.126-1.173,0.38-1.648
			c0.253-0.473,0.609-0.838,1.068-1.096c0.458-0.257,0.986-0.385,1.582-0.385c0.572,0,1.083,0.125,1.531,0.374
			c0.447,0.251,0.797,0.601,1.046,1.052c0.249,0.452,0.375,0.972,0.375,1.56C189.247,69.076,189.231,69.281,189.202,69.466z
			 M187.936,68.451c-0.007-0.462-0.172-0.834-0.496-1.112c-0.323-0.28-0.724-0.419-1.2-0.419c-0.434,0-0.805,0.138-1.113,0.413
			c-0.308,0.276-0.493,0.649-0.551,1.118C184.576,68.451,187.936,68.451,187.936,68.451z"/>
		<path fill="#FFFFFF" d="M191.946,66.986v3.361c0,0.227,0.054,0.391,0.16,0.49s0.288,0.149,0.545,0.149h0.771v1.046h-0.991
			c-0.566,0-1-0.132-1.3-0.397c-0.302-0.264-0.452-0.693-0.452-1.288v-3.361h-0.716v-1.024h0.716v-1.509h1.267v1.509h1.476v1.024
			C193.422,66.986,191.946,66.986,191.946,66.986z"/>
		<path fill="#FFFFFF" d="M200.043,65.961l-3.724,8.925h-1.299l1.233-2.953l-2.391-5.972h1.399l1.707,4.627l1.775-4.627H200.043z"/>
		<path fill="#FFFFFF" d="M203.819,67.35c0.253-0.471,0.598-0.836,1.035-1.096c0.436-0.26,0.92-0.391,1.448-0.391
			c0.478,0,0.895,0.093,1.252,0.281c0.356,0.187,0.64,0.42,0.853,0.699v-0.881h1.267v6.071h-1.267V71.13
			c-0.213,0.286-0.504,0.526-0.87,0.716c-0.368,0.191-0.786,0.286-1.256,0.286c-0.521,0-0.999-0.133-1.432-0.402
			c-0.433-0.268-0.776-0.643-1.029-1.123c-0.254-0.482-0.38-1.027-0.38-1.637S203.565,67.819,203.819,67.35z M208.148,67.9
			c-0.172-0.308-0.398-0.543-0.677-0.704c-0.28-0.163-0.581-0.243-0.903-0.243c-0.324,0-0.625,0.079-0.903,0.237
			c-0.28,0.158-0.506,0.39-0.678,0.694s-0.259,0.666-0.259,1.085c0,0.418,0.087,0.786,0.259,1.101
			c0.172,0.317,0.401,0.557,0.683,0.722s0.582,0.248,0.898,0.248c0.323,0,0.623-0.081,0.903-0.243
			c0.279-0.161,0.505-0.398,0.677-0.71s0.259-0.677,0.259-1.096S208.321,68.209,208.148,67.9z"/>
		<path fill="#FFFFFF" d="M215.674,66.159c0.379,0.198,0.675,0.493,0.887,0.881c0.213,0.39,0.32,0.859,0.32,1.41v3.581h-1.245
			v-3.394c0-0.543-0.136-0.959-0.408-1.25c-0.271-0.29-0.643-0.435-1.112-0.435c-0.471,0-0.843,0.145-1.118,0.435
			c-0.276,0.291-0.413,0.708-0.413,1.25v3.394h-1.256V65.96h1.256v0.694c0.205-0.249,0.468-0.445,0.787-0.584
			c0.32-0.139,0.66-0.209,1.019-0.209C214.868,65.862,215.296,65.961,215.674,66.159z"/>
		<path fill="#FFFFFF" d="M218.44,67.35c0.253-0.471,0.598-0.836,1.035-1.096c0.436-0.26,0.924-0.391,1.459-0.391
			c0.397,0,0.788,0.086,1.173,0.259c0.386,0.172,0.693,0.402,0.92,0.688v-2.931h1.267v8.154h-1.267v-0.914
			c-0.205,0.293-0.49,0.537-0.853,0.727c-0.364,0.191-0.781,0.286-1.252,0.286c-0.528,0-1.012-0.133-1.448-0.402
			c-0.438-0.268-0.782-0.643-1.035-1.123c-0.254-0.482-0.38-1.027-0.38-1.637S218.185,67.819,218.44,67.35z M222.769,67.9
			c-0.172-0.308-0.398-0.543-0.677-0.704c-0.28-0.163-0.581-0.243-0.903-0.243c-0.324,0-0.625,0.079-0.903,0.237
			c-0.28,0.158-0.506,0.39-0.678,0.694s-0.259,0.666-0.259,1.085c0,0.418,0.087,0.786,0.259,1.101
			c0.172,0.317,0.401,0.557,0.683,0.722s0.582,0.248,0.898,0.248c0.323,0,0.623-0.081,0.903-0.243
			c0.279-0.161,0.505-0.398,0.677-0.71s0.259-0.677,0.259-1.096S222.941,68.209,222.769,67.9z"/>
		<path fill="#FFFFFF" d="M228.918,66.17c0.348-0.595,0.823-1.06,1.421-1.393c0.598-0.335,1.254-0.501,1.967-0.501
			c0.815,0,1.54,0.199,2.176,0.6s1.096,0.968,1.384,1.703h-1.511c-0.198-0.405-0.473-0.705-0.826-0.903
			c-0.352-0.199-0.76-0.298-1.222-0.298c-0.507,0-0.959,0.114-1.355,0.342c-0.397,0.227-0.708,0.554-0.931,0.98
			c-0.224,0.425-0.336,0.922-0.336,1.487c0,0.566,0.112,1.061,0.336,1.487c0.224,0.425,0.534,0.754,0.931,0.986
			c0.396,0.231,0.848,0.347,1.355,0.347c0.462,0,0.87-0.099,1.222-0.298c0.353-0.198,0.628-0.499,0.826-0.903h1.511
			c-0.287,0.735-0.748,1.3-1.384,1.696c-0.636,0.397-1.36,0.595-2.176,0.595c-0.72,0-1.377-0.167-1.973-0.501
			c-0.595-0.334-1.067-0.799-1.415-1.393c-0.35-0.595-0.523-1.267-0.523-2.017S228.569,66.766,228.918,66.17z"/>
		<path fill="#FFFFFF" d="M238.41,71.74c-0.463-0.26-0.827-0.628-1.091-1.101c-0.264-0.474-0.396-1.023-0.396-1.648
			c0-0.617,0.136-1.165,0.407-1.641c0.271-0.478,0.643-0.845,1.113-1.102c0.469-0.257,0.995-0.385,1.576-0.385
			c0.579,0,1.105,0.128,1.575,0.385c0.469,0.258,0.841,0.625,1.112,1.102c0.273,0.477,0.408,1.024,0.408,1.641
			s-0.139,1.165-0.419,1.641c-0.279,0.478-0.659,0.847-1.14,1.107c-0.48,0.262-1.012,0.391-1.591,0.391
			C239.39,72.131,238.872,72.002,238.41,71.74z M240.872,70.809c0.284-0.154,0.513-0.385,0.689-0.694
			c0.176-0.308,0.264-0.682,0.264-1.123s-0.084-0.814-0.253-1.118c-0.17-0.304-0.394-0.534-0.672-0.688
			c-0.28-0.155-0.581-0.232-0.903-0.232c-0.324,0-0.623,0.077-0.898,0.232c-0.275,0.154-0.494,0.384-0.655,0.688
			c-0.163,0.304-0.243,0.677-0.243,1.118c0,0.654,0.167,1.159,0.501,1.514c0.335,0.357,0.755,0.535,1.263,0.535
			C240.286,71.041,240.589,70.964,240.872,70.809z"/>
		<path fill="#FFFFFF" d="M248.705,66.159c0.379,0.198,0.675,0.493,0.887,0.881c0.213,0.39,0.32,0.859,0.32,1.41v3.581h-1.245
			v-3.394c0-0.543-0.136-0.959-0.408-1.25c-0.271-0.29-0.643-0.435-1.112-0.435c-0.471,0-0.843,0.145-1.118,0.435
			c-0.276,0.291-0.413,0.708-0.413,1.25v3.394h-1.256V65.96h1.256v0.694c0.205-0.249,0.468-0.445,0.787-0.584
			c0.32-0.139,0.66-0.209,1.019-0.209C247.9,65.862,248.328,65.961,248.705,66.159z"/>
		<path fill="#FFFFFF" d="M255.857,66.159c0.379,0.198,0.675,0.493,0.887,0.881c0.213,0.39,0.32,0.859,0.32,1.41v3.581h-1.245
			v-3.394c0-0.543-0.136-0.959-0.408-1.25c-0.271-0.29-0.643-0.435-1.112-0.435c-0.471,0-0.843,0.145-1.118,0.435
			c-0.276,0.291-0.413,0.708-0.413,1.25v3.394h-1.256V65.96h1.256v0.694c0.205-0.249,0.468-0.445,0.787-0.584
			c0.32-0.139,0.66-0.209,1.019-0.209C255.051,65.862,255.479,65.961,255.857,66.159z"/>
		<path fill="#FFFFFF" d="M264.18,69.466h-4.638c0.037,0.484,0.216,0.874,0.54,1.167c0.323,0.295,0.72,0.441,1.19,0.441
			c0.675,0,1.153-0.284,1.431-0.848h1.355c-0.183,0.557-0.516,1.014-0.997,1.371c-0.48,0.356-1.078,0.534-1.789,0.534
			c-0.581,0-1.1-0.13-1.56-0.391c-0.46-0.26-0.819-0.628-1.079-1.101c-0.262-0.474-0.391-1.023-0.391-1.648s0.126-1.173,0.38-1.648
			c0.253-0.473,0.609-0.838,1.068-1.096c0.458-0.257,0.986-0.385,1.582-0.385c0.572,0,1.083,0.125,1.531,0.374
			c0.447,0.251,0.797,0.601,1.046,1.052c0.249,0.452,0.375,0.972,0.375,1.56C264.226,69.076,264.21,69.281,264.18,69.466z
			 M262.914,68.451c-0.007-0.462-0.172-0.834-0.496-1.112c-0.323-0.28-0.724-0.419-1.2-0.419c-0.434,0-0.805,0.138-1.113,0.413
			c-0.308,0.276-0.493,0.649-0.551,1.118C259.554,68.451,262.914,68.451,262.914,68.451z"/>
		<path fill="#FFFFFF" d="M265.421,67.344c0.253-0.473,0.604-0.838,1.051-1.096c0.449-0.257,0.963-0.385,1.544-0.385
			c0.733,0,1.342,0.175,1.822,0.523c0.482,0.348,0.807,0.847,0.975,1.492h-1.355c-0.11-0.301-0.286-0.535-0.528-0.704
			c-0.243-0.17-0.548-0.254-0.914-0.254c-0.515,0-0.924,0.182-1.23,0.545c-0.304,0.364-0.457,0.873-0.457,1.527
			s0.153,1.165,0.457,1.531c0.306,0.368,0.715,0.551,1.23,0.551c0.726,0,1.208-0.32,1.442-0.959h1.355
			c-0.176,0.617-0.506,1.107-0.991,1.472c-0.485,0.363-1.088,0.545-1.806,0.545c-0.581,0-1.095-0.13-1.544-0.391
			c-0.447-0.26-0.798-0.628-1.051-1.101c-0.254-0.474-0.38-1.023-0.38-1.648C265.041,68.367,265.167,67.818,265.421,67.344z"/>
		<path fill="#FFFFFF" d="M273.535,66.986v3.361c0,0.227,0.054,0.391,0.16,0.49c0.106,0.099,0.288,0.149,0.545,0.149h0.771v1.046
			h-0.991c-0.566,0-1-0.132-1.3-0.397c-0.302-0.264-0.452-0.693-0.452-1.288v-3.361h-0.716v-1.024h0.716v-1.509h1.267v1.509h1.477
			v1.024C275.012,66.986,273.535,66.986,273.535,66.986z"/>
		<path fill="#FFFFFF" d="M276.234,64.926c-0.154-0.155-0.231-0.346-0.231-0.573s0.077-0.419,0.231-0.573
			c0.154-0.154,0.346-0.231,0.573-0.231c0.22,0,0.407,0.077,0.562,0.231c0.154,0.154,0.231,0.346,0.231,0.573
			s-0.077,0.418-0.231,0.573c-0.155,0.154-0.342,0.231-0.562,0.231C276.58,65.157,276.388,65.08,276.234,64.926z M277.425,65.961
			v6.071h-1.256v-6.071H277.425z"/>
		<path fill="#FFFFFF" d="M281.424,70.909l1.72-4.948h1.332l-2.314,6.071h-1.498l-2.303-6.071h1.345L281.424,70.909z"/>
		<path fill="#FFFFFF" d="M285.489,64.926c-0.154-0.155-0.231-0.346-0.231-0.573s0.077-0.419,0.231-0.573s0.346-0.231,0.573-0.231
			c0.22,0,0.407,0.077,0.562,0.231c0.154,0.154,0.231,0.346,0.231,0.573s-0.077,0.418-0.231,0.573
			c-0.155,0.154-0.342,0.231-0.562,0.231C285.835,65.157,285.643,65.08,285.489,64.926z M286.68,65.961v6.071h-1.257v-6.071H286.68z
			"/>
		<path fill="#FFFFFF" d="M289.798,66.986v3.361c0,0.227,0.054,0.391,0.16,0.49c0.106,0.099,0.288,0.149,0.545,0.149h0.771v1.046
			h-0.991c-0.566,0-1-0.132-1.3-0.397c-0.302-0.264-0.452-0.693-0.452-1.288v-3.361h-0.716v-1.024h0.716v-1.509h1.267v1.509h1.476
			v1.024C291.274,66.986,289.798,66.986,289.798,66.986z"/>
		<path fill="#FFFFFF" d="M297.896,65.961l-3.724,8.925h-1.299l1.233-2.953l-2.391-5.972h1.399l1.707,4.627l1.775-4.627H297.896z"/>
	</g>
	<g>
		<path fill="#FFFFFF" d="M91.813,68.6c0.006-0.26,0.018-0.519,0.018-0.779c0.001-11.895,0.001-23.791,0.002-35.686
			c0-0.239,0-0.478,0-0.768c2.891,0,5.755,0,8.702,0c0,0.219,0,0.431,0,0.643c0,9.316,0.001,18.633-0.001,27.949
			c-0.001,4.219-3.088,7.835-7.253,8.51c-0.133,0.022-0.259,0.086-0.388,0.131C92.533,68.6,92.173,68.6,91.813,68.6z"/>
		<path fill="#FFFFFF" d="M68.58,19.9c-0.12-0.69-0.18-1.29-0.32-1.87c-0.88-3.72-4.42-6.36-8.06-6.06
			c-0.53,0.04-0.65,0.21-0.65,0.72c0.01,11.51,0.01,23.03,0.01,34.55c0,4.2,2.97,7.76,7.11,8.5c0.59,0.11,1.2,0.14,1.86,0.22V55
			c-0.01-8.52-0.02-17.04-0.03-25.56c0-0.8,0-0.8,0.83-0.8h5.64c0.77,0,0.77,0,0.77,0.78c0.01,8.32,0.01,16.63,0.02,24.95
			c0.68-0.1,1.37-0.15,2.07-0.15c2.55,0,4.94,0.68,6.99,1.87c-0.01-8.89-0.01-17.77-0.01-26.65c0-0.8,0-0.8,0.78-0.8h14.92V19.9
			H68.58z M96.07,27.71c-1.79,0-3.25-1.49-3.24-3.29c0.01-1.87,1.45-3.36,3.26-3.36s3.29,1.5,3.29,3.33
			C99.38,26.21,97.89,27.71,96.07,27.71z"/>
		<path fill="#FFFFFF" d="M63.808,1.649c2.297,0.015,4.161,1.887,4.189,4.209c0.028,2.317-1.936,4.279-4.272,4.268
			c-2.353-0.011-4.294-1.972-4.247-4.289C59.526,3.462,61.417,1.633,63.808,1.649z"/>
	</g>
	<path fill="#FFFFFF" d="M31.777,58.489c-5.432,0-9.825,4.406-9.825,9.825c0,5.432,4.393,9.825,9.825,9.825s9.825-4.393,9.825-9.825
		C41.602,62.895,37.209,58.489,31.777,58.489z M34.669,71.268c-0.751,0.738-1.752,1.177-2.891,1.177c-2.278,0-4.13-1.852-4.13-4.13
		s1.852-4.118,4.13-4.118c1.089,0,2.078,0.413,2.816,1.114c0.813,0.751,1.314,1.815,1.314,3.004
		C35.908,69.466,35.432,70.517,34.669,71.268z"/>
</g>
<path fill="#FFFFFF" d="M86.389,63.508c-0.426-0.776-0.964-1.477-1.577-2.103c-1.765-1.79-4.23-2.904-6.946-2.916h-0.038
	c-0.476,0-0.939,0.038-1.389,0.1c-3.091,0.438-5.707,2.315-7.172,4.919c-0.814,1.414-1.264,3.054-1.264,4.806
	c0,1.252,0.238,2.453,0.663,3.555c1.427,3.667,4.981,6.27,9.162,6.27c4.18,0,7.735-2.603,9.162-6.27
	c0.426-1.101,0.663-2.303,0.663-3.555C87.653,66.562,87.203,64.922,86.389,63.508z M79.793,71.869
	c-0.576,0.325-1.239,0.513-1.965,0.513s-1.389-0.188-1.978-0.513c-1.239-0.701-2.09-2.028-2.09-3.555
	c0-2.24,1.827-4.068,4.068-4.068c2.24,0,4.055,1.827,4.055,4.068C81.883,69.841,81.045,71.168,79.793,71.869z"/>
<path fill="#FFFFFF" d="M64.249,68.314c0,1.227,0.163,2.428,0.476,3.555H45.212c0.626-1.327,0.964-2.716,0.964-4.143
	c0-1.464-0.338-2.854-1.014-4.218h19.963C64.561,65.01,64.249,66.624,64.249,68.314z"/>
</svg>
