<?xml version="1.0" encoding="utf-8"?>
<!-- Generator: Adobe Illustrator 26.5.0, SVG Export Plug-In . SVG Version: 6.00 Build 0)  -->
<svg version="1.1" id="Layer_1" xmlns="http://www.w3.org/2000/svg" xmlns:xlink="http://www.w3.org/1999/xlink" x="0px" y="0px"
	 viewBox="0 0 24 24" style="enable-background:new 0 0 24 24;" xml:space="preserve">
<style type="text/css">
	.st0{fill:none;stroke:#FFFFFF;stroke-width:2;}
	.st1{fill:none;stroke:#FFFFFF;stroke-width:2;stroke-linecap:round;}
	.st2{fill:#FFFFFF;}
</style>
<path class="st0" d="M4,13c0-1.89,0-2.83,0.59-3.41C5.17,9,6.11,9,8,9h8c1.89,0,2.83,0,3.41,0.59C20,10.17,20,11.11,20,13v2
	c0,2.83,0,4.24-0.88,5.12S16.83,21,14,21h-4c-2.83,0-4.24,0-5.12-0.88S4,17.83,4,15V13z"/>
<path class="st1" d="M16,8V7c0-2.21-1.79-4-4-4l0,0C9.79,3,8,4.79,8,7v1"/>
<circle class="st2" cx="12" cy="15" r="2"/>
</svg>
